MoBL_ARMS_shoulder_elvation_states	
version=1	
nRows=293	
nColumns=2	
inDegrees=yes	
	
# SIMM Motion File Header:	
name MoBL_ARMS_shoulder_elvation_states	
datacolumns 2	
datarows 293	
otherdata 1	
range 2.497959615 3.157222863	
endheader	
time	shoulder_elv
2.497959615	22.86958957
2.500072574	22.95027795
2.502185533	23.02970746
2.504737738	23.12397247
2.506824374	23.19966955
2.508911009	23.27413569
2.510997644	23.34736237
2.513605628	23.43714431
2.515689645	23.50748945
2.517773662	23.57659556
2.519857678	23.6444545
2.522477291	23.7279865
2.524552084	23.79274082
2.526626877	23.85625699
2.52870167	23.91852726
2.531345405	23.99607037
2.533414035	24.05532851
2.535482666	24.1133468
2.537551296	24.17011781
2.540212828	24.24132831
2.542275306	24.29508546
2.544337783	24.34760206
2.546400261	24.398871
2.549079086	24.46360144
2.55113641	24.51188022
2.553193734	24.55891755
2.555251059	24.60470659
2.557944571	24.66277134
2.559997415	24.70558384
2.562050259	24.7471541
2.564103104	24.7874756
2.566809293	24.83872535
2.568858403	24.87608373
2.570907513	24.91219913
2.572956624	24.94706528
2.575673317	24.99136837
2.577719362	25.02328167
2.579765407	25.05395136
2.581811453	25.0833714
2.584536683	25.12062089
2.586580284	25.14709616
2.588623885	25.17232731
2.590667486	25.19630854
2.59339948	25.22642005
2.595441187	25.24746248
2.597482894	25.2672605
2.59993421	25.2893788
2.602113126	25.3075315
2.604292042	25.32425798
2.606470959	25.33956529
2.608649875	25.35344583
2.610828792	25.36590643
2.613007708	25.37693992
2.615186624	25.38655296
2.617365541	25.39473877
2.619544457	25.40150386
2.621723373	25.40684185
2.62390229	25.41075907
2.626081206	25.41324955
2.628260122	25.41431948
2.630439039	25.41396324
2.632617955	25.41218688
2.634796872	25.40898512
2.636975788	25.40436389
2.639154704	25.39831827
2.641333621	25.39085405
2.643512537	25.38196668
2.645691453	25.37166183
2.64787037	25.35993528
2.650049286	25.34679263
2.652228202	25.33222997
2.654407119	25.3162528
2.656586035	25.29885757
2.658764952	25.28004965
2.660943868	25.25982584
2.663560522	25.23367565
2.665489195	25.2130941
2.667417868	25.1914109
2.669997774	25.16067814
2.672279864	25.13185104
2.674561955	25.10147766
2.676844045	25.06956899
2.678787691	25.04117405
2.680731338	25.0116677
2.683219677	24.97226439
2.685708016	24.93104142
2.687634114	24.89787852
2.689560212	24.86362955
2.692124773	24.81633679
2.694689335	24.76712185
2.696526817	24.73067283
2.698364298	24.69324149
2.701099926	24.63568887
2.703343725	24.58685964
2.705587524	24.53656506
2.707831323	24.48481382
2.710075122	24.43160142
2.712318921	24.37693874
2.714562719	24.32081908
2.716806518	24.26325608
2.718775376	24.21154996
2.720744233	24.15873604
2.723202619	24.09123089
2.725661006	24.02200342
2.72763347	23.96521024
2.729605934	23.90731439
2.732114745	23.83207865
2.734623557	23.75506553
2.736514214	23.69584948
2.73840487	23.6356301
2.741054957	23.54952972
2.743413387	23.47125267
2.745771818	23.39141711
2.747734627	23.32379647
2.749697437	23.25510166
2.752187601	23.16641593
2.754677766	23.07601298
2.756630953	23.00391262
2.75858414	22.93076083
2.761130696	22.83381849
2.763677252	22.7351016
2.76555652	22.6611241
2.767435788	22.58618516
2.770111039	22.47785894
2.772448416	22.38163229
2.774785793	22.2839418
2.777123171	22.18478407
2.779064177	22.10133899
2.781005183	22.01688917
2.783540149	21.90509694
2.786075115	21.7916062
2.788030767	21.70290142
2.78998642	21.61319234
2.792568011	21.49324546
2.795149602	21.37156448
2.797016158	21.28251686
2.798882715	21.19256904
2.801620681	21.05901403
2.803985149	20.94213577
2.806349617	20.82384087
2.808472604	20.71641877
2.81059559	20.60786604
2.812718577	20.49818124
2.815277447	20.36448568
2.817430716	20.25071975
2.819583984	20.13581286
2.821737253	20.01976421
2.823890522	19.90258448
2.826584219	19.75440509
2.828602237	19.64224855
2.830620254	19.52910989
2.833206869	19.38267188
2.835793484	19.23463984
2.837644405	19.12774607
2.839495325	19.0200445
2.842320073	18.85413739
2.844741092	18.7104674
2.847162112	18.56545106
2.849265313	18.43837877
2.851368514	18.31030474
2.853471715	18.1812291
2.856207464	18.01185148
2.858360595	17.87736991
2.860513727	17.74186728
2.862666859	17.60534456
2.865335952	17.43470805
2.8674727	17.29699151
2.869609449	17.1583
2.871746197	17.01863472
2.874477015	16.83874009
2.876619279	16.69652167
2.878761543	16.55335568
2.880903807	16.40924377
2.883655237	16.22278464
2.885796541	16.07661212
2.887937846	15.9295273
2.89007915	15.78153226
2.892864646	15.58767273
2.89500758	15.43750535
2.897150514	15.28646085
2.899293448	15.1345418
2.902108329	14.93367928
2.904252774	14.77966672
2.90639722	14.62481469
2.908541665	14.46912629
2.911386352	14.26133224
2.9135329	14.10358417
2.915679448	13.94503641
2.917825996	13.78569263
2.92069907	13.57119552
2.922847376	13.40990166
2.924995682	13.24785092
2.927581708	13.05178451
2.929890999	12.87579994
2.932200289	12.69897218
2.934509579	12.52132449
2.936818869	12.34286118
2.939128159	12.16360599
2.941437449	11.98356368
2.943746739	11.80275817
2.946056029	11.62119794
2.948365319	11.4389113
2.950674609	11.25590624
2.952983899	11.07220665
2.955293189	10.88782036
2.957602479	10.70277101
2.959911769	10.51706768
2.962221059	10.3307337
2.964530349	10.14377952
2.96683964	9.956228229
2.96914893	9.768091571
2.971987129	9.536097088
2.974132471	9.360185847
2.976277812	9.183824667
2.978983571	8.960765747
2.981283644	8.770627878
2.983583718	8.580021179
2.985883791	8.388973821
2.988183864	8.197497329
2.990483938	8.005618228
2.992784011	7.813350788
2.995593634	7.578000058
2.997913086	7.383320305
3.000232537	7.188321246
3.002551989	6.993015371
3.004871441	6.797433583
3.007190893	6.601590586
3.009510345	6.405516531
3.011829796	6.209228029
3.014815917	5.956251655
3.016916438	5.778137462
3.019016959	5.599915944
3.021938934	5.351844353
3.024183737	5.161176099
3.02642854	4.970449956
3.029194728	4.735389233
3.031605265	4.530542717
3.034015801	4.325729507
3.036426338	4.120967164
3.038836875	3.916300159
3.041247412	3.711744237
3.043657949	3.507345631
3.046068486	3.303121111
3.048479022	3.099116163
3.050889559	2.895350603
3.053300096	2.691869927
3.055710633	2.488693262
3.05812117	2.285868764
3.060531707	2.083415291
3.06268572	1.902862095
3.064839733	1.722658152
3.066993746	1.542837128
3.069586155	1.326953658
3.072178565	1.111706792
3.074770975	0.897132257
3.077381076	0.681820956
3.079991178	0.467293281
3.082291079	0.278942448
3.084590981	0.091260931
3.087404025	-0.1373263
3.089236116	-0.285607967
3.091068207	-0.433395629
3.093671094	-0.642484609
3.095959308	-0.82540517
3.098247523	-1.00746549
3.100535737	-1.188621787
3.102823952	-1.368847425
3.105517332	-1.579741636
3.10746506	-1.731382497
3.109412789	-1.882270099
3.111360517	-2.032386589
3.113808252	-2.219905188
3.115891245	-2.378462353
3.117974238	-2.53604682
3.120057231	-2.692638562
3.12235769	-2.864385889
3.124408583	-3.016423573
3.126459475	-3.167410434
3.128510368	-3.317328497
3.13056126	-3.46614465
3.132612153	-3.613838614
3.134663045	-3.760378398
3.136713938	-3.905743248
3.138764831	-4.049901116
3.140815723	-4.192832335
3.142866616	-4.334502918
3.144917508	-4.474894643
3.146968401	-4.613972232
3.149019293	-4.75171846
3.151070186	-4.888099069
3.153121078	-5.023094426
3.155171971	-5.156671754
3.157222863	-5.288812677
